<svg fill="#585858" version="1.1" id="Capa_1" xmlns="http://www.w3.org/2000/svg" xmlns:xlink="http://www.w3.org/1999/xlink" viewBox="0 0 874.1 874.1" xml:space="preserve"><g id="SVGRepo_bgCarrier" stroke-width="0"></g><g id="SVGRepo_tracerCarrier" stroke-linecap="round" stroke-linejoin="round"></g><g id="SVGRepo_iconCarrier"> <g> <g> <path d="M50,300.05c-27.6,0-50,22.4-50,50v174c0,27.6,22.4,50,50,50s50-22.4,50-50v-174C100,322.45,77.6,300.05,50,300.05z"></path> <path d="M690.1,244.55c-27.6,0-50,22.4-50,50v102.5h-406v-102.5c0-27.6-22.4-50-50-50c-27.6,0-50,22.4-50,50v285 c0,27.6,22.4,50,50,50c27.6,0,50-22.4,50-50v-102.5h406v102.5c0,27.6,22.4,50,50,50s50-22.4,50-50v-285 C740.1,266.95,717.699,244.55,690.1,244.55z"></path> <path d="M824.1,300.05c-27.6,0-50,22.4-50,50v174c0,27.6,22.4,50,50,50s50-22.4,50-50v-174 C874.1,322.45,851.699,300.05,824.1,300.05z"></path> </g> </g> </g></svg>