<svg height="200px" width="200px" version="1.1" id="_x32_" xmlns="http://www.w3.org/2000/svg" xmlns:xlink="http://www.w3.org/1999/xlink" viewBox="0 0 512 512" xml:space="preserve" fill="#000000"><g id="SVGRepo_bgCarrier" stroke-width="0"></g><g id="SVGRepo_tracerCarrier" stroke-linecap="round" stroke-linejoin="round"></g><g id="SVGRepo_iconCarrier"> <style type="text/css"> .st0{fill:#ffffff;} </style> <g> <path class="st0" d="M337.168,289.578c-5.129-5.133-13.457-5.133-18.598,0l-16.031,16.038c-4.68,4.68-12.122,5.149-17.352,1.102 c0,0-15.332-10.109-40.402-35.179c-25.07-25.07-35.175-40.414-35.175-40.414c-4.055-5.226-3.578-12.656,1.102-17.343l16.031-16.031 c5.141-5.134,5.141-13.462,0-18.594l-35.34-35.343c-5.133-5.133-13.453-5.133-18.594,0c-0.122,0.125-1.906,1.906-21.309,21.32 c-22.602,22.594,7.293,91.82,57.574,142.118c50.289,50.281,119.527,80.164,142.121,57.578 c19.394-19.406,21.184-21.203,21.305-21.32c5.141-5.133,5.141-13.461,0-18.586L337.168,289.578z"></path> <path class="st0" d="M256,0C114.614,0,0,114.617,0,256s114.614,256,256,256s256-114.617,256-256S397.386,0,256,0z M256,472 c-119.102,0-216-96.898-216-216S136.898,40,256,40s216,96.898,216,216S375.102,472,256,472z"></path> </g> </g></svg>